<?xml version="1.0" encoding="UTF-8" standalone="no"?>
<!-- Created with Inkscape (http://www.inkscape.org/) -->

<svg
   xmlns:dc="http://purl.org/dc/elements/1.1/"
   xmlns:cc="http://creativecommons.org/ns#"
   xmlns:rdf="http://www.w3.org/1999/02/22-rdf-syntax-ns#"
   xmlns:svg="http://www.w3.org/2000/svg"
   xmlns="http://www.w3.org/2000/svg"
   xmlns:sodipodi="http://sodipodi.sourceforge.net/DTD/sodipodi-0.dtd"
   xmlns:inkscape="http://www.inkscape.org/namespaces/inkscape"
   version="1.1"
   id="svg2"
   xml:space="preserve"
   width="1373.5222"
   height="368.46106"
   viewBox="0 0 1373.5222 368.46104"
   sodipodi:docname="logo.svg"
   inkscape:version="0.92.3 (2405546, 2018-03-11)"><metadata
     id="metadata8"><rdf:RDF><cc:Work
         rdf:about=""><dc:format>image/svg+xml</dc:format><dc:type
           rdf:resource="http://purl.org/dc/dcmitype/StillImage" /><dc:title></dc:title></cc:Work></rdf:RDF></metadata><defs
     id="defs6"><clipPath
       clipPathUnits="userSpaceOnUse"
       id="clipPath18"><path
         d="M 0,842 H 1191 V 0 H 0 Z"
         id="path16"
         inkscape:connector-curvature="0" /></clipPath></defs><sodipodi:namedview
     pagecolor="#ffffff"
     bordercolor="#666666"
     borderopacity="1"
     objecttolerance="10"
     gridtolerance="10"
     guidetolerance="10"
     inkscape:pageopacity="0"
     inkscape:pageshadow="2"
     inkscape:window-width="1489"
     inkscape:window-height="567"
     id="namedview4"
     showgrid="false"
     inkscape:zoom="0.21021376"
     inkscape:cx="144.08796"
     inkscape:cy="185.27214"
     inkscape:window-x="0"
     inkscape:window-y="0"
     inkscape:window-maximized="0"
     inkscape:current-layer="g10"
     fit-margin-top="0"
     fit-margin-left="0"
     fit-margin-right="0"
     fit-margin-bottom="0" /><g
     id="g10"
     inkscape:groupmode="layer"
     inkscape:label="rcclogo_vector"
     transform="matrix(1.3333333,0,0,-1.3333333,-107.60691,744.52225)"><g
       id="g12"><g
         id="g14"
         clip-path="url(#clipPath18)"><g
           id="g20"
           transform="translate(997.3486,455.8618)"><path
             d="m 0,0 c 1.464,0.63 2.871,1.673 4.203,3.13 l 17.194,16.816 11.106,10.86 V -0.32 h 10.524 v 32.442 c 0,1.73 -0.291,3.224 -0.881,4.484 -0.583,1.25 -1.361,2.294 -2.317,3.112 -0.967,0.808 -2.074,1.41 -3.331,1.795 -1.247,0.385 -2.542,0.583 -3.883,0.583 -3.02,0 -5.909,-1.354 -8.658,-4.052 L 21.397,35.521 -4.371,10.125 v 31.012 h -10.58 V 10.726 c 0,-1.598 0.234,-3.102 0.703,-4.512 0.469,-1.42 1.144,-2.651 2.036,-3.704 0.881,-1.062 1.97,-1.899 3.254,-2.52 1.285,-0.63 2.739,-0.94 4.372,-0.94 1.594,0 3.123,0.32 4.586,0.95"
             style="fill:#231f20;fill-opacity:1;fill-rule:nonzero;stroke:none"
             id="path22"
             inkscape:connector-curvature="0" /></g><g
           id="g24"
           transform="translate(1018.7461,415.9971)"><path
             d="M 0,0 H -4.776 L 0,8.696 0.022,8.737 4.776,0 Z M 9.093,13.797 C 8.364,15.094 7.59,16.188 6.771,17.077 5.96,17.966 5.031,18.634 3.984,19.097 2.945,19.561 1.68,19.792 0.187,19.792 L 0,19.791 c -1.433,-0.019 -2.682,-0.25 -3.738,-0.703 -1.102,-0.473 -2.085,-1.15 -2.959,-2.02 -0.874,-0.88 -1.685,-1.946 -2.432,-3.197 -0.746,-1.242 -1.52,-2.659 -2.322,-4.234 l -15.68,-30.866 h 11.546 l 5.555,10.721 H 0 9.976 l 6.055,-10.721 H 27.187 L 11.496,9.34 c -0.874,1.668 -1.675,3.15 -2.403,4.457"
             style="fill:#231f20;fill-opacity:1;fill-rule:nonzero;stroke:none"
             id="path26"
             inkscape:connector-curvature="0" /></g><g
           id="g28"
           transform="translate(528.8999,532.3652)"><path
             d="M 0,0 H 18.477 36.953 V -4.753 H 18.477 0 Z M 0,15.353 H 18.477 36.953 V 10.702 H 18.477 0 Z m 34.963,-30.808 c 1.186,0 2.354,0.159 3.512,0.476 1.158,0.317 2.25,0.775 3.287,1.354 1.027,0.589 1.98,1.289 2.858,2.111 0.868,0.822 1.634,1.727 2.269,2.736 0.635,0.999 1.13,2.073 1.494,3.213 0.355,1.139 0.533,2.334 0.533,3.567 0,0.625 -0.103,1.26 -0.309,1.905 -0.196,0.644 -0.448,1.289 -0.766,1.914 -0.308,0.635 -0.653,1.252 -1.036,1.858 -0.383,0.617 -0.766,1.205 -1.149,1.765 1.569,2.429 2.353,5.015 2.353,7.751 0,2.186 -0.373,4.081 -1.12,5.669 -0.747,1.597 -1.793,2.923 -3.119,3.96 -1.335,1.036 -2.904,1.811 -4.716,2.306 -1.821,0.504 -3.801,0.757 -5.958,0.757 H 18.477 -11.001 v -41.342 h 29.478 z"
             style="fill:#231f20;fill-opacity:1;fill-rule:nonzero;stroke:none"
             id="path30"
             inkscape:connector-curvature="0" /></g><g
           id="g32"
           transform="translate(464.791,547.3818)"><path
             d="M 0,0 H 18.317 36.635 V -19.938 H 18.317 0 Z m -6.929,-26.587 c 1.176,-1.167 2.568,-2.073 4.183,-2.736 1.616,-0.654 3.353,-0.981 5.211,-0.981 h 15.852 16.02 c 1.149,0 2.27,0.15 3.362,0.449 1.093,0.308 2.13,0.728 3.11,1.288 0.972,0.561 1.868,1.214 2.69,1.98 0.821,0.766 1.531,1.616 2.12,2.549 0.597,0.925 1.055,1.924 1.381,2.979 0.327,1.056 0.496,2.167 0.496,3.316 v 15.287 c 0,1.737 -0.355,3.39 -1.065,4.977 -0.71,1.588 -1.662,2.989 -2.848,4.203 -1.186,1.213 -2.568,2.175 -4.146,2.895 -1.579,0.718 -3.223,1.083 -4.94,1.083 H 18.317 3.969 C 2.129,10.702 0.336,10.403 -1.42,9.796 -3.166,9.198 -4.735,8.358 -6.126,7.284 -7.508,6.21 -8.62,4.921 -9.46,3.427 -10.301,1.933 -10.721,0.289 -10.721,-1.494 v -15.652 c 0,-1.895 0.336,-3.651 1.009,-5.267 0.681,-1.615 1.606,-3.006 2.783,-4.174"
             style="fill:#231f20;fill-opacity:1;fill-rule:nonzero;stroke:none"
             id="path34"
             inkscape:connector-curvature="0" /></g><g
           id="g36"
           transform="translate(520.3462,458.9736)"><path
             d="M 0,0 C 1.285,-1.082 2.739,-1.918 4.38,-2.52 6.021,-3.131 7.701,-3.432 9.427,-3.432 H 27.03 54.901 V 6.956 H 27.03 6.565 V 27.694 H 27.03 53.896 V 27.56 h 0.707 v 0.134 h 0.298 V 38.128 H 27.03 11.509 C 6.312,38.128 2.382,36.869 -0.272,34.359 -2.927,31.84 -4.259,27.985 -4.259,22.787 V 8.799 c 0,-1.805 0.384,-3.45 1.163,-4.945 C -2.317,2.359 -1.286,1.071 0,0"
             style="fill:#231f20;fill-opacity:1;fill-rule:nonzero;stroke:none"
             id="path38"
             inkscape:connector-curvature="0" /></g><g
           id="g40"
           transform="translate(721.7354,493.7559)"><path
             d="m 0,0 c -1.332,-1.147 -2.383,-2.548 -3.152,-4.212 -0.769,-1.663 -1.154,-3.534 -1.154,-5.631 v -15.125 c 0,-1.965 0.404,-3.77 1.21,-5.415 0.807,-1.645 1.886,-3.055 3.245,-4.24 1.352,-1.184 2.909,-2.106 4.672,-2.773 1.754,-0.658 3.602,-0.987 5.525,-0.987 h 43.665 v 11.046 H 6.275 v 4.512 h 47.736 v 10.773 H 6.275 v 4.851 H 54.011 V 3.544 H 10.449 C 8.404,3.544 6.472,3.243 4.681,2.632 2.889,2.03 1.322,1.156 0,0"
             style="fill:#231f20;fill-opacity:1;fill-rule:nonzero;stroke:none"
             id="path42"
             inkscape:connector-curvature="0" /></g><g
           id="g44"
           transform="translate(460.9136,486.2163)"><path
             d="M 0,0 H 22.195 36.798 V -20.07 H 22.195 0 Z m -6.96,-26.764 c 1.182,-1.174 2.58,-2.087 4.203,-2.754 1.622,-0.658 3.367,-0.987 5.234,-0.987 h 19.718 12.296 c 1.154,0 2.279,0.151 3.377,0.451 1.097,0.31 2.138,0.733 3.123,1.298 0.976,0.564 1.876,1.222 2.702,1.992 0.825,0.771 1.538,1.627 2.129,2.567 0.6,0.93 1.06,1.936 1.388,2.999 0.329,1.062 0.498,2.18 0.498,3.337 v 15.389 c 0,1.748 -0.357,3.412 -1.07,5.01 -0.713,1.599 -1.669,3.008 -2.861,4.231 -1.191,1.222 -2.579,2.19 -4.165,2.914 -1.585,0.724 -3.236,1.09 -4.962,1.09 H 22.195 3.987 C 2.139,10.773 0.338,10.472 -1.425,9.861 -3.18,9.26 -4.755,8.414 -6.153,7.333 -7.542,6.251 -8.658,4.954 -9.501,3.45 -10.346,1.946 -10.768,0.292 -10.768,-1.504 v -15.755 c 0,-1.909 0.338,-3.676 1.013,-5.303 0.685,-1.625 1.613,-3.026 2.795,-4.202"
             style="fill:#231f20;fill-opacity:1;fill-rule:nonzero;stroke:none"
             id="path46"
             inkscape:connector-curvature="0" /></g><g
           id="g48"
           transform="translate(727.3652,553.9956)"><path
             d="M 0,0 C 1.199,1.297 2.376,2.366 3.614,3.627 H -33.558 C -34.464,2.713 -35.156,2.008 -37.102,0.024 -25.686,-0.113 -18.386,0.039 0,0"
             style="fill:#231f20;fill-opacity:1;fill-rule:nonzero;stroke:none"
             id="path50"
             inkscape:connector-curvature="0" /></g><g
           id="g52"
           transform="translate(787.4609,458.9736)"><path
             d="m 0,0 c 1.285,-1.082 2.739,-1.918 4.381,-2.52 1.641,-0.611 3.32,-0.912 5.047,-0.912 H 54.902 V 6.956 H 6.566 V 27.694 H 54.902 V 38.128 H 11.51 C 6.312,38.128 2.383,36.869 -0.271,34.359 -2.927,31.84 -4.259,27.985 -4.259,22.787 V 8.799 c 0,-1.805 0.385,-3.45 1.164,-4.945 C -2.316,2.359 -1.285,1.071 0,0"
             style="fill:#231f20;fill-opacity:1;fill-rule:nonzero;stroke:none"
             id="path54"
             inkscape:connector-curvature="0" /></g><g
           id="g56"
           transform="translate(594.4004,532.4775)"><path
             d="M 0,0 H 19.214 38.429 V -5.248 H 19.214 0 Z m 34.684,-15.782 c 1.839,0 3.651,0.317 5.416,0.962 1.764,0.634 3.343,1.522 4.716,2.661 1.382,1.139 2.484,2.503 3.325,4.081 0.263,0.496 0.486,1.008 0.668,1.533 0.394,1.147 0.592,2.363 0.592,3.65 0,1.341 -0.198,2.622 -0.592,3.841 -0.142,0.436 -0.309,0.865 -0.5,1.285 -0.729,1.598 -1.709,2.989 -2.943,4.175 -1.232,1.186 -2.661,2.12 -4.295,2.821 -1.634,0.69 -3.352,1.036 -5.155,1.036 H 19.214 0 v 15.455 h -11 v -41.5 h 30.214 z"
             style="fill:#231f20;fill-opacity:1;fill-rule:nonzero;stroke:none"
             id="path58"
             inkscape:connector-curvature="0" /></g><g
           id="g60"
           transform="translate(1095.3799,481.5347)"><path
             d="M 0,0 H -18.423 -36.845 V 5.02 H -18.423 0 Z M -18.423,15.455 H -34.49 c -1.098,0 -2.176,-0.16 -3.237,-0.479 -1.059,-0.32 -2.063,-0.771 -2.992,-1.354 -0.938,-0.574 -1.801,-1.269 -2.589,-2.068 -0.788,-0.79 -1.463,-1.674 -2.035,-2.642 -0.563,-0.959 -1.013,-1.993 -1.332,-3.083 -0.319,-1.091 -0.478,-2.209 -0.478,-3.347 0,-1.269 0.197,-2.52 0.599,-3.76 0.405,-1.241 0.995,-2.407 1.764,-3.507 -0.882,-1.034 -1.566,-2.171 -2.045,-3.431 -0.487,-1.26 -0.731,-2.463 -0.731,-3.619 v -14.158 h 10.721 v 15.558 H -18.423 0 v -15.558 h 10.909 l -0.036,37.85 0.176,0.772 0.541,0.649 3.877,2.177 z"
             style="fill:#231f20;fill-opacity:1;fill-rule:nonzero;stroke:none"
             id="path62"
             inkscape:connector-curvature="0" /></g><g
           id="g64"
           transform="translate(689.8418,516.291)"><path
             d="M 0,0 C 5.822,5.779 10.23,10.194 15.293,15.294 20.354,20.395 26.069,26.18 34.502,34.698 33.008,34.696 3.896,34.69 -2.668,34.692 -4.305,33.046 -7.122,30.223 -10.204,27.134 -14.077,23.254 -18.368,18.955 -21.266,16.043 -26.919,10.361 -32.085,5.148 -36.97,0.202 -27.48,0.163 -20.505,0.162 -10.204,0.088 -7.146,0.066 -3.797,0.038 0,0"
             style="fill:#231f20;fill-opacity:1;fill-rule:nonzero;stroke:none"
             id="path66"
             inkscape:connector-curvature="0" /></g><g
           id="g68"
           transform="translate(660.334,486.5547)"><path
             d="M 0,0 H 19.304 38.608 V -5.283 H 19.304 0 Z m 0,-15.614 h 19.304 16.781 c 1.81,0 3.536,0.347 5.178,1.034 1.641,0.686 3.076,1.635 4.314,2.839 1.238,1.203 2.224,2.604 2.955,4.211 0.732,1.608 1.098,3.328 1.098,5.161 0,1.909 -0.403,3.657 -1.21,5.246 -0.807,1.588 -1.896,2.961 -3.255,4.108 -1.37,1.146 -2.936,2.04 -4.727,2.67 -1.783,0.629 -3.65,0.949 -5.591,0.949 H 19.304 -11.153 V -31.013 H 0 Z"
             style="fill:#231f20;fill-opacity:1;fill-rule:nonzero;stroke:none"
             id="path70"
             inkscape:connector-curvature="0" /></g><g
           id="g72"
           transform="translate(459.356,282.0459)"><path
             d="M 0,0 C 1.437,1.457 2.943,3.06 4.458,4.704 3.1,4.7 -12.712,4.706 -24.143,4.71 l -11.582,0.004 c 2.938,-3.29 1.6,-1.761 4.219,-4.714 z"
             style="fill:#231f20;fill-opacity:1;fill-rule:nonzero;stroke:none"
             id="path74"
             inkscape:connector-curvature="0" /></g><g
           id="g76"
           transform="translate(911.6816,405.2207)"><path
             d="M 0,0 H -17.861 -35.723 V 19.783 H -17.861 0 Z m 6.775,26.454 c -1.156,1.205 -2.504,2.159 -4.043,2.873 -1.539,0.713 -3.141,1.075 -4.817,1.075 h -15.776 -13.992 c -1.793,0 -3.542,-0.297 -5.253,-0.899 -1.704,-0.593 -3.234,-1.427 -4.59,-2.493 -1.348,-1.066 -2.432,-2.344 -3.251,-3.827 -0.82,-1.482 -1.229,-3.113 -1.229,-4.883 V 2.771 c 0,-1.882 0.327,-3.624 0.984,-5.227 0.664,-1.604 1.565,-2.983 2.713,-4.142 1.147,-1.158 2.504,-2.057 4.08,-2.715 1.575,-0.649 3.268,-0.973 5.081,-0.973 h 15.457 15.621 c 1.12,0 2.214,0.148 3.278,0.445 1.066,0.306 2.076,0.723 3.032,1.278 0.948,0.557 1.822,1.206 2.623,1.965 0.801,0.76 1.494,1.603 2.068,2.53 0.582,0.918 1.028,1.909 1.346,2.956 0.32,1.047 0.484,2.149 0.484,3.289 v 15.169 c 0,1.723 -0.347,3.363 -1.038,4.939 C 8.86,23.86 7.932,25.25 6.775,26.454"
             style="fill:#231f20;fill-opacity:1;fill-rule:nonzero;stroke:none"
             id="path78"
             inkscape:connector-curvature="0" /></g><g
           id="g80"
           transform="translate(572.124,435.7441)"><path
             d="m 0,0 c -8.249,-8.25 -16.499,-16.475 -24.748,-24.726 -3.653,-3.655 -7.307,-7.314 -10.961,-10.983 h -1.412 c -12.155,12.155 -24.311,24.26 -36.415,36.415 h -15.48 -16.749 c -1.21,-1.16 -2.37,-2.32 -3.53,-3.531 6.759,-6.721 13.52,-13.457 20.279,-20.202 10.994,-10.97 21.988,-21.963 32.981,-32.957 -13.639,-13.66 -24.321,-24.361 -32.981,-33.041 -25.817,-25.884 -33.62,-33.778 -47.895,-48.279 l -8.022,-8.15 c 2.997,-0.004 5.63,-0.008 8.022,-0.013 11.828,-0.021 17.753,-0.042 32.4,0.048 l 15.495,15.566 51.895,52.13 h 1.412 l 10.961,-10.962 c 8.249,-8.253 16.499,-16.512 24.748,-24.796 h 33.641 c 1.16,1.21 2.32,2.37 3.53,3.53 -17.753,17.754 -35.506,35.508 -53.26,53.261 17.754,17.652 35.507,35.254 53.26,52.806 v 0.707 c -1.21,1.058 -2.37,2.118 -3.53,3.177 z"
             style="fill:#231f20;fill-opacity:1;fill-rule:nonzero;stroke:none"
             id="path82"
             inkscape:connector-curvature="0" /></g><g
           id="g84"
           transform="translate(641.7432,455.542)"><path
             d="m 0,0 -28.129,16.212 -7.9,4.554 7.9,4.596 27.847,16.198 H -21.8 l -6.329,-3.746 -18.669,-11.051 c -0.017,-0.01 -0.013,0.01 -0.666,0.374 v 14.48 H -59.058 V 0 h 11.594 v 13.694 c 0.631,0.672 0.618,0.677 0.628,0.672 L -28.129,3.631 -21.8,0 Z"
             style="fill:#231f20;fill-opacity:1;fill-rule:nonzero;stroke:none"
             id="path86"
             inkscape:connector-curvature="0" /></g><g
           id="g88"
           transform="translate(661.9492,420.1294)"><path
             d="M 0,0 H -18.74 -37.48 V 5.208 H -18.74 0 Z m 6.365,12.092 c -1.33,1.131 -2.85,2.011 -4.59,2.632 -1.73,0.621 -3.542,0.936 -5.427,0.936 H -18.74 -48.308 v -41.021 h 10.828 v 15.178 h 18.74 16.291 c 1.757,0 3.432,0.343 5.026,1.018 1.593,0.677 2.986,1.613 4.189,2.799 1.202,1.186 2.158,2.567 2.868,4.152 0.71,1.584 1.065,3.279 1.065,5.087 0,1.881 -0.391,3.604 -1.175,5.17 -0.782,1.566 -1.838,2.919 -3.159,4.049"
             style="fill:#231f20;fill-opacity:1;fill-rule:nonzero;stroke:none"
             id="path90"
             inkscape:connector-curvature="0" /></g><g
           id="g92"
           transform="translate(731.3008,434.2324)"><path
             d="m 0,0 c -0.937,0.797 -2.013,1.39 -3.232,1.77 -1.211,0.38 -2.468,0.574 -3.771,0.574 -2.932,0 -5.736,-1.334 -8.404,-3.993 L -42.908,-29.17 V 1.399 h -8.755 -1.517 v -29.976 c 0,-1.575 0.228,-3.058 0.684,-4.447 0.226,-0.7 0.505,-1.352 0.833,-1.959 0.329,-0.609 0.71,-1.172 1.142,-1.693 0.856,-1.047 1.913,-1.871 3.161,-2.482 1.247,-0.621 2.658,-0.927 4.243,-0.927 1.548,0 3.032,0.314 4.453,0.936 1.42,0.621 2.786,1.649 4.079,3.086 l 27.474,27.279 v -30.68 H 3.105 v 31.977 c 0,1.705 -0.282,3.178 -0.856,4.42 C 1.685,-1.835 0.929,-0.806 0,0"
             style="fill:#231f20;fill-opacity:1;fill-rule:nonzero;stroke:none"
             id="path94"
             inkscape:connector-curvature="0" /></g><g
           id="g96"
           transform="translate(401.2324,531.5093)"><path
             d="m 0,0 c 0.451,-0.259 23.579,-13.474 25.55,-14.599 h 8.431 13.272 L 33.981,-6.966 11.384,6.03 33.981,19.146 46.973,26.686 H 33.981 25.55 C 11.195,18.286 1.498,12.518 0.039,11.771 -0.008,16.858 0.013,21.751 0,26.743 H -11.542 V -14.599 H 0 Z"
             style="fill:#231f20;fill-opacity:1;fill-rule:nonzero;stroke:none"
             id="path98"
             inkscape:connector-curvature="0" /></g><g
           id="g100"
           transform="translate(743.7207,432.0181)"><path
             d="m 0,0 c -2.576,-2.483 -3.869,-6.283 -3.869,-11.407 v -13.788 c 0,-1.779 0.373,-3.4 1.129,-4.874 0.756,-1.473 1.758,-2.743 3.005,-3.799 1.247,-1.065 2.659,-1.89 4.253,-2.483 1.592,-0.603 3.222,-0.899 4.898,-0.899 h 44.147 v 10.239 H 6.639 V -6.57 H 53.563 V 3.715 H 11.438 C 6.393,3.715 2.577,2.474 0,0"
             style="fill:#231f20;fill-opacity:1;fill-rule:nonzero;stroke:none"
             id="path102"
             inkscape:connector-curvature="0" /></g><g
           id="g104"
           transform="translate(802.7285,425.3369)"><path
             d="M 0,0 H 23.448 V -30.568 H 33.829 V 0 H 57.332 V 10.396 H 0 Z"
             style="fill:#231f20;fill-opacity:1;fill-rule:nonzero;stroke:none"
             id="path106"
             inkscape:connector-curvature="0" /></g><g
           id="g108"
           transform="translate(334.6675,547.7178)"><path
             d="M 0,0 H 17.451 38.438 V -5.248 H 17.451 0 Z m 0,-15.511 h 17.451 18.474 c 1.803,0 3.521,0.345 5.156,1.027 1.633,0.682 3.062,1.625 4.295,2.82 1.233,1.195 2.213,2.587 2.942,4.184 0.728,1.597 1.092,3.306 1.092,5.127 0,1.895 -0.401,3.632 -1.204,5.211 -0.804,1.578 -1.887,2.941 -3.241,4.081 -1.363,1.139 -2.923,2.026 -4.707,2.652 -1.774,0.625 -3.633,0.943 -5.566,0.943 H 17.451 -11.104 V -30.808 H 0 Z"
             style="fill:#231f20;fill-opacity:1;fill-rule:nonzero;stroke:none"
             id="path110"
             inkscape:connector-curvature="0" /></g><g
           id="g112"
           transform="translate(908.1172,455.373)"><path
             d="m 0,0 v 11.045 h -14.297 -33.438 v 4.513 H -14.297 0 v 10.773 h -14.297 -33.438 v 4.851 H -14.297 0 v 10.745 h -14.297 -29.265 c -2.044,0 -3.976,-0.301 -5.768,-0.912 -1.791,-0.602 -3.358,-1.476 -4.681,-2.632 -1.332,-1.147 -2.383,-2.548 -3.151,-4.212 -0.77,-1.664 -1.154,-3.534 -1.154,-5.631 V 13.415 c 0,-1.965 0.403,-3.77 1.21,-5.415 0.806,-1.646 1.885,-3.056 3.246,-4.24 1.35,-1.184 2.907,-2.106 4.671,-2.773 C -47.436,0.329 -45.588,0 -43.664,0 h 29.367 z"
             style="fill:#231f20;fill-opacity:1;fill-rule:nonzero;stroke:none"
             id="path114"
             inkscape:connector-curvature="0" /></g><g
           id="g116"
           transform="translate(227.9775,558.123)"><path
             d="m 0,0 c -13.627,-68.646 -12.269,-62.348 -16.674,-83.493 h -99.322 c 7.71,39.923 8.992,46.284 16.015,83.398 -45.864,-0.026 -0.022,-0.005 -45.887,-0.027 10.799,-4.73 14.591,-5.864 12.962,-13.181 -5.45,-27.855 -9.014,-45.792 -13.939,-70.627 -0.539,-2.718 -0.415,-5.257 -0.415,-7.525 0.236,-12.796 11.985,-22.369 27.595,-22.854 H 5.457 c 5.74,0.201 12.413,-0.301 14.421,-6.079 6.097,31.162 0.582,2.935 7.117,36.895 H 13.768 c 6.162,32.248 9.539,49.913 16.05,83.271 C 18.953,-0.212 13.357,-0.021 0,0"
             style="fill:#231f20;fill-opacity:1;fill-rule:nonzero;stroke:none"
             id="path118"
             inkscape:connector-curvature="0" /></g><g
           id="g120"
           transform="translate(974.5049,420.7222)"><path
             d="M 0,0 H -18.017 -36.033 V 4.615 H -18.017 0 Z m 0,-15.335 h -18.017 -18.016 v 4.716 H -18.017 0 Z m 10.617,6.523 c -0.301,0.63 -0.638,1.242 -1.011,1.844 -0.373,0.612 -0.746,1.195 -1.12,1.752 1.531,2.409 2.295,4.975 2.295,7.69 0,2.169 -0.364,4.049 -1.093,5.625 -0.728,1.584 -1.748,2.9 -3.041,3.929 -1.302,1.028 -2.832,1.797 -4.598,2.288 -1.777,0.501 -3.706,0.751 -5.81,0.751 H -18.017 -46.76 v -41.021 h 28.743 16.077 c 1.157,0 2.294,0.158 3.424,0.472 1.129,0.315 2.195,0.77 3.205,1.344 1.001,0.584 1.93,1.279 2.787,2.095 0.846,0.815 1.593,1.713 2.212,2.714 0.62,0.992 1.102,2.057 1.458,3.188 0.345,1.13 0.518,2.316 0.518,3.539 0,0.621 -0.1,1.251 -0.3,1.891 -0.191,0.639 -0.437,1.278 -0.747,1.899"
             style="fill:#231f20;fill-opacity:1;fill-rule:nonzero;stroke:none"
             id="path122"
             inkscape:connector-curvature="0" /></g><g
           id="g124"
           transform="translate(410.0312,455.0742)"><path
             d="m 0,0 h -57.913 -44.255 l 2.428,12.858 h 41.827 60.342 z m -8.07,-42.731 h -49.843 -52.326 l 2.482,13.142 h 49.844 52.325 z m 26.986,-12.513 c 2.284,2.827 3.515,5.448 4.885,8.189 0.583,1.166 1.042,2.427 1.381,3.696 0.157,0.585 0.288,1.171 0.394,1.752 0.361,1.985 0.926,3.558 1.024,5.569 0.1,2.064 0.205,4.408 -0.014,6.19 -0.218,1.781 -0.584,3.558 -1.117,5.293 -0.097,0.314 -0.192,0.608 -0.287,0.889 -0.435,1.286 -0.866,2.282 -1.388,3.477 -0.853,1.952 -1.488,3.247 -3.401,5.457 1.789,1.844 3.384,3.724 4.789,5.636 3.731,5.078 6.109,10.387 7.132,15.88 1.129,6.056 1.088,10.604 0.414,14.789 -0.774,4.805 -3.876,9.185 -6.888,11.941 -0.214,0.196 -0.433,0.39 -0.658,0.583 C 22,36.823 17.829,39.127 13.344,40.444 8.617,41.831 3.23,41.983 -2.734,41.983 h -55.179 -78.053 l 4.377,-2.12 3.778,-3.311 1.262,-2.848 -0.022,-1.994 -19.672,-104.031 h 88.33 38.755 c 3.279,0 7.387,0.119 11.111,1.087 3.027,0.786 5.776,1.353 8.872,2.935 3.25,1.661 6.633,2.962 9.349,5.144 3.037,2.438 6.476,5.106 8.742,7.911"
             style="fill:#231f20;fill-opacity:1;fill-rule:nonzero;stroke:none"
             id="path126"
             inkscape:connector-curvature="0" /></g><g
           id="g128"
           transform="translate(268.9897,517.7227)"><path
             d="M 0,0 C 1.746,-0.654 3.586,-0.981 5.5,-0.981 H 48.971 V 9.992 H 1.447 v 4.483 H 48.971 V 25.177 H 1.447 v 4.818 H 48.971 V 40.669 H 5.603 c -2.036,0 -3.959,-0.299 -5.743,-0.905 -1.784,-0.598 -3.343,-1.467 -4.66,-2.616 -1.326,-1.139 -2.372,-2.53 -3.138,-4.183 -0.766,-1.653 -1.148,-3.511 -1.148,-5.594 V 12.346 c 0,-1.952 0.401,-3.745 1.204,-5.379 C -7.079,5.332 -6.005,3.931 -4.651,2.755 -3.306,1.578 -1.756,0.663 0,0"
             style="fill:#231f20;fill-opacity:1;fill-rule:nonzero;stroke:none"
             id="path130"
             inkscape:connector-curvature="0" /></g><g
           id="g132"
           transform="translate(964.4346,471.2695)"><path
             d="M 0,0 V -15.728 H 10.524 V 25.889 H 0 V 10.604 h -7.946 -30.39 V 25.889 H -48.86 v -41.617 h 10.524 V 0 h 30.39 z"
             style="fill:#231f20;fill-opacity:1;fill-rule:nonzero;stroke:none"
             id="path134"
             inkscape:connector-curvature="0" /></g></g></g></g></svg>