<svg xmlns="http://www.w3.org/2000/svg" xml:space="preserve" width="1373.522" height="368.461"><defs><clipPath clipPathUnits="userSpaceOnUse" id="a"><path d="M0 842h1191V0H0Z"/></clipPath></defs><g clip-path="url(#a)" transform="matrix(1.33333 0 0 -1.33333 -107.607 744.522)"><path d="M0 0c1.464.63 2.871 1.673 4.203 3.13l17.194 16.816 11.106 10.86V-.32h10.524v32.442c0 1.73-.291 3.224-.881 4.484-.583 1.25-1.361 2.294-2.317 3.112a9.453 9.453 0 0 1-3.331 1.795 13.094 13.094 0 0 1-3.883.583c-3.02 0-5.909-1.354-8.658-4.052l-2.56-2.523-25.768-25.396v31.012h-10.58V10.726c0-1.598.234-3.102.703-4.512.469-1.42 1.144-2.651 2.036-3.704.881-1.062 1.97-1.899 3.254-2.52 1.285-.63 2.739-.94 4.372-.94C-2.992-.95-1.463-.63 0 0" style="fill:#231f20;fill-opacity:1;fill-rule:nonzero;stroke:none" transform="translate(997.349 455.862)"/><path d="M0 0h-4.776L0 8.696l.022.041L4.776 0Zm9.093 13.797c-.729 1.297-1.503 2.391-2.322 3.28a8.259 8.259 0 0 1-2.787 2.02c-1.039.464-2.304.695-3.797.695L0 19.791c-1.433-.019-2.682-.25-3.738-.703a9.46 9.46 0 0 1-2.959-2.02c-.874-.88-1.685-1.946-2.432-3.197a69.86 69.86 0 0 1-2.322-4.234l-15.68-30.866h11.546l5.555 10.721H9.976l6.055-10.721h11.156L11.496 9.34a198.996 198.996 0 0 1-2.403 4.457" style="fill:#231f20;fill-opacity:1;fill-rule:nonzero;stroke:none" transform="translate(1018.746 415.997)"/><path d="M0 0h36.953v-4.753H0Zm0 15.353h36.953v-4.651H0Zm34.963-30.808c1.186 0 2.354.159 3.512.476 1.158.317 2.25.775 3.287 1.354a15.302 15.302 0 0 1 2.858 2.111 14.154 14.154 0 0 1 2.269 2.736 13.77 13.77 0 0 1 1.494 3.213c.355 1.139.533 2.334.533 3.567 0 .625-.103 1.26-.309 1.905a11.795 11.795 0 0 1-.766 1.914 18.959 18.959 0 0 1-1.036 1.858 47.535 47.535 0 0 1-1.149 1.765c1.569 2.429 2.353 5.015 2.353 7.751 0 2.186-.373 4.081-1.12 5.669-.747 1.597-1.793 2.923-3.119 3.96-1.335 1.036-2.904 1.811-4.716 2.306-1.821.504-3.801.757-5.958.757h-44.097v-41.342h29.478z" style="fill:#231f20;fill-opacity:1;fill-rule:nonzero;stroke:none" transform="translate(528.9 532.365)"/><path d="M0 0h36.635v-19.938H0Zm-6.929-26.587c1.176-1.167 2.568-2.073 4.183-2.736 1.616-.654 3.353-.981 5.211-.981h31.872c1.149 0 2.27.15 3.362.449 1.093.308 2.13.728 3.11 1.288a14.688 14.688 0 0 1 2.69 1.98 12.902 12.902 0 0 1 2.12 2.549A12.014 12.014 0 0 1 47-21.059c.327 1.056.496 2.167.496 3.316v15.287c0 1.737-.355 3.39-1.065 4.977a14.341 14.341 0 0 1-2.848 4.203 13.676 13.676 0 0 1-4.146 2.895 11.801 11.801 0 0 1-4.94 1.083H3.969c-1.84 0-3.633-.299-5.389-.906a16.264 16.264 0 0 1-4.706-2.512A12.782 12.782 0 0 1-9.46 3.427c-.841-1.494-1.261-3.138-1.261-4.921v-15.652c0-1.895.336-3.651 1.009-5.267.681-1.615 1.606-3.006 2.783-4.174" style="fill:#231f20;fill-opacity:1;fill-rule:nonzero;stroke:none" transform="translate(464.791 547.382)"/><path d="M0 0a14.449 14.449 0 0 1 4.38-2.52 14.34 14.34 0 0 1 5.047-.912h45.474V6.956H6.565v20.738h47.331v-.134h.707v.134h.298v10.434H11.509c-5.197 0-9.127-1.259-11.781-3.769-2.655-2.519-3.987-6.374-3.987-11.572V8.799c0-1.805.384-3.45 1.163-4.945A12.452 12.452 0 0 1 0 0" style="fill:#231f20;fill-opacity:1;fill-rule:nonzero;stroke:none" transform="translate(520.346 458.974)"/><path d="M0 0c-1.332-1.147-2.383-2.548-3.152-4.212-.769-1.663-1.154-3.534-1.154-5.631v-15.125c0-1.965.404-3.77 1.21-5.415a13.37 13.37 0 0 1 3.245-4.24c1.352-1.184 2.909-2.106 4.672-2.773a15.625 15.625 0 0 1 5.525-.987h43.665v11.046H6.275v4.512h47.736v10.773H6.275v4.851h47.736V3.544H10.449c-2.045 0-3.977-.301-5.768-.912C2.889 2.03 1.322 1.156 0 0" style="fill:#231f20;fill-opacity:1;fill-rule:nonzero;stroke:none" transform="translate(721.735 493.756)"/><path d="M0 0h36.798v-20.07H0Zm-6.96-26.764c1.182-1.174 2.58-2.087 4.203-2.754 1.622-.658 3.367-.987 5.234-.987h32.014c1.154 0 2.279.151 3.377.451 1.097.31 2.138.733 3.123 1.298a14.789 14.789 0 0 1 2.702 1.992 12.927 12.927 0 0 1 2.129 2.567c.6.93 1.06 1.936 1.388 2.999.329 1.062.498 2.18.498 3.337v15.389c0 1.748-.357 3.412-1.07 5.01a14.429 14.429 0 0 1-2.861 4.231 13.693 13.693 0 0 1-4.165 2.914 11.805 11.805 0 0 1-4.962 1.09H3.987c-1.848 0-3.649-.301-5.412-.912a16.304 16.304 0 0 1-4.728-2.528A12.845 12.845 0 0 1-9.501 3.45c-.845-1.504-1.267-3.158-1.267-4.954v-15.755c0-1.909.338-3.676 1.013-5.303.685-1.625 1.613-3.026 2.795-4.202" style="fill:#231f20;fill-opacity:1;fill-rule:nonzero;stroke:none" transform="translate(460.914 486.216)"/><path d="M0 0c1.199 1.297 2.376 2.366 3.614 3.627h-37.172A910.101 910.101 0 0 1-37.102.024C-25.686-.113-18.386.039 0 0" style="fill:#231f20;fill-opacity:1;fill-rule:nonzero;stroke:none" transform="translate(727.365 553.996)"/><path d="M0 0a14.442 14.442 0 0 1 4.381-2.52 14.336 14.336 0 0 1 5.047-.912h45.474V6.956H6.566v20.738h48.336v10.434H11.51c-5.198 0-9.127-1.259-11.781-3.769-2.656-2.519-3.988-6.374-3.988-11.572V8.799c0-1.805.385-3.45 1.164-4.945A12.463 12.463 0 0 1 0 0" style="fill:#231f20;fill-opacity:1;fill-rule:nonzero;stroke:none" transform="translate(787.46 458.974)"/><path d="M0 0h38.429v-5.248H0Zm34.684-15.782c1.839 0 3.651.317 5.416.962 1.764.634 3.343 1.522 4.716 2.661a13.388 13.388 0 0 1 3.325 4.081c.263.496.486 1.008.668 1.533.394 1.147.592 2.363.592 3.65 0 1.341-.198 2.622-.592 3.841a13.499 13.499 0 0 1-3.443 5.46c-1.232 1.186-2.661 2.12-4.295 2.821a13.117 13.117 0 0 1-5.155 1.036H0v15.455h-11v-41.5h30.214z" style="fill:#231f20;fill-opacity:1;fill-rule:nonzero;stroke:none" transform="translate(594.4 532.477)"/><path d="M0 0h-36.845v5.02H0Zm-18.423 15.455H-34.49a11.18 11.18 0 0 1-3.237-.479 12.316 12.316 0 0 1-2.992-1.354 13.634 13.634 0 0 1-2.589-2.068 13.304 13.304 0 0 1-2.035-2.642 13.676 13.676 0 0 1-1.332-3.083 11.878 11.878 0 0 1-.478-3.347c0-1.269.197-2.52.599-3.76a13.293 13.293 0 0 1 1.764-3.507 11.6 11.6 0 0 1-2.045-3.431c-.487-1.26-.731-2.463-.731-3.619v-14.158h10.721v15.558H0v-15.558h10.909l-.036 37.85.176.772.541.649 3.877 2.177z" style="fill:#231f20;fill-opacity:1;fill-rule:nonzero;stroke:none" transform="translate(1095.38 481.535)"/><path d="M0 0a2751.4 2751.4 0 0 1 15.293 15.294c5.061 5.101 10.776 10.886 19.209 19.404-1.494-.002-30.606-.008-37.17-.006-1.637-1.646-4.454-4.469-7.536-7.558A6079.415 6079.415 0 0 1-36.97.202c9.49-.039 16.465-.04 26.766-.114C-7.146.066-3.797.038 0 0" style="fill:#231f20;fill-opacity:1;fill-rule:nonzero;stroke:none" transform="translate(689.842 516.291)"/><path d="M0 0h38.608v-5.283H0Zm0-15.614h36.085c1.81 0 3.536.347 5.178 1.034a13.754 13.754 0 0 1 7.269 7.05c.732 1.608 1.098 3.328 1.098 5.161 0 1.909-.403 3.657-1.21 5.246a13.093 13.093 0 0 1-3.255 4.108 15.088 15.088 0 0 1-4.727 2.67 16.7 16.7 0 0 1-5.591.949h-46v-41.617H0Z" style="fill:#231f20;fill-opacity:1;fill-rule:nonzero;stroke:none" transform="translate(660.334 486.555)"/><path d="M0 0a194.324 194.324 0 0 1 4.458 4.704c-1.358-.004-17.17.002-28.601.006l-11.582.004c2.938-3.29 1.6-1.761 4.219-4.714z" style="fill:#231f20;fill-opacity:1;fill-rule:nonzero;stroke:none" transform="translate(459.356 282.046)"/><path d="M0 0h-35.723v19.783H0Zm6.775 26.454a13.298 13.298 0 0 1-4.043 2.873 11.324 11.324 0 0 1-4.817 1.075h-29.768c-1.793 0-3.542-.297-5.253-.899a15.74 15.74 0 0 1-4.59-2.493 12.612 12.612 0 0 1-3.251-3.827c-.82-1.482-1.229-3.113-1.229-4.883V2.771c0-1.882.327-3.624.984-5.227.664-1.604 1.565-2.983 2.713-4.142 1.147-1.158 2.504-2.057 4.08-2.715 1.575-.649 3.268-.973 5.081-.973H-2.24c1.12 0 2.214.148 3.278.445A13.31 13.31 0 0 1 4.07-8.563a14.38 14.38 0 0 1 2.623 1.965c.801.76 1.494 1.603 2.068 2.53a12.027 12.027 0 0 1 1.346 2.956 11.22 11.22 0 0 1 .484 3.289v15.169a12.15 12.15 0 0 1-1.038 4.939 14.245 14.245 0 0 1-2.778 4.169" style="fill:#231f20;fill-opacity:1;fill-rule:nonzero;stroke:none" transform="translate(911.682 405.22)"/><path d="M0 0c-8.249-8.25-16.499-16.475-24.748-24.726a8740.883 8740.883 0 0 1-10.961-10.983h-1.412C-49.276-23.554-61.432-11.449-73.536.706h-32.229c-1.21-1.16-2.37-2.32-3.53-3.531 6.759-6.721 13.52-13.457 20.279-20.202a40977.925 40977.925 0 0 0 32.981-32.957c-13.639-13.66-24.321-24.361-32.981-33.041-25.817-25.884-33.62-33.778-47.895-48.279l-8.022-8.15c2.997-.004 5.63-.008 8.022-.013 11.828-.021 17.753-.042 32.4.048l15.495 15.566 51.895 52.13h1.412l10.961-10.962C-16.499-96.938-8.249-105.197 0-113.481h33.641c1.16 1.21 2.32 2.37 3.53 3.53l-53.26 53.261a26668.618 26668.618 0 0 0 53.26 52.806v.707c-1.21 1.058-2.37 2.118-3.53 3.177z" style="fill:#231f20;fill-opacity:1;fill-rule:nonzero;stroke:none" transform="translate(572.124 435.744)"/><path d="m0 0-28.129 16.212-7.9 4.554 7.9 4.596L-.282 41.56H-21.8l-6.329-3.746-18.669-11.051c-.017-.01-.013.01-.666.374v14.48h-11.594V0h11.594v13.694c.631.672.618.677.628.672l18.707-10.735L-21.8 0Z" style="fill:#231f20;fill-opacity:1;fill-rule:nonzero;stroke:none" transform="translate(641.743 455.542)"/><path d="M0 0h-37.48v5.208H0Zm6.365 12.092a14.555 14.555 0 0 1-4.59 2.632c-1.73.621-3.542.936-5.427.936h-44.656v-41.021h10.828v15.178h35.031c1.757 0 3.432.343 5.026 1.018a13.342 13.342 0 0 1 4.189 2.799 13.557 13.557 0 0 1 2.868 4.152c.71 1.584 1.065 3.279 1.065 5.087 0 1.881-.391 3.604-1.175 5.17a12.813 12.813 0 0 1-3.159 4.049" style="fill:#231f20;fill-opacity:1;fill-rule:nonzero;stroke:none" transform="translate(661.95 420.13)"/><path d="M0 0a9.124 9.124 0 0 1-3.232 1.77c-1.211.38-2.468.574-3.771.574-2.932 0-5.736-1.334-8.404-3.993L-42.908-29.17V1.399H-53.18v-29.976c0-1.575.228-3.058.684-4.447.226-.7.505-1.352.833-1.959.329-.609.71-1.172 1.142-1.693a9.313 9.313 0 0 1 3.161-2.482c1.247-.621 2.658-.927 4.243-.927 1.548 0 3.032.314 4.453.936 1.42.621 2.786 1.649 4.079 3.086L-7.111-8.784v-30.68H3.105v31.977c0 1.705-.282 3.178-.856 4.42C1.685-1.835.929-.806 0 0" style="fill:#231f20;fill-opacity:1;fill-rule:nonzero;stroke:none" transform="translate(731.3 434.232)"/><path d="M0 0c.451-.259 23.579-13.474 25.55-14.599h21.703L33.981-6.966 11.384 6.03l22.597 13.116 12.992 7.54H25.55C11.195 18.286 1.498 12.518.039 11.771-.008 16.858.013 21.751 0 26.743h-11.542v-41.342H0Z" style="fill:#231f20;fill-opacity:1;fill-rule:nonzero;stroke:none" transform="translate(401.232 531.51)"/><path d="M0 0c-2.576-2.483-3.869-6.283-3.869-11.407v-13.788c0-1.779.373-3.4 1.129-4.874a12.269 12.269 0 0 1 3.005-3.799 13.985 13.985 0 0 1 4.253-2.483 13.704 13.704 0 0 1 4.898-.899h44.147v10.239H6.639V-6.57h46.924V3.715H11.438C6.393 3.715 2.577 2.474 0 0" style="fill:#231f20;fill-opacity:1;fill-rule:nonzero;stroke:none" transform="translate(743.72 432.018)"/><path d="M0 0h23.448v-30.568h10.381V0h23.503v10.396H0Z" style="fill:#231f20;fill-opacity:1;fill-rule:nonzero;stroke:none" transform="translate(802.729 425.337)"/><path d="M0 0h38.438v-5.248H0Zm0-15.511h35.925c1.803 0 3.521.345 5.156 1.027a13.693 13.693 0 0 1 7.237 7.004c.728 1.597 1.092 3.306 1.092 5.127 0 1.895-.401 3.632-1.204 5.211a13.008 13.008 0 0 1-3.241 4.081 15.005 15.005 0 0 1-4.707 2.652 16.647 16.647 0 0 1-5.566.943h-45.796v-41.342H0Z" style="fill:#231f20;fill-opacity:1;fill-rule:nonzero;stroke:none" transform="translate(334.668 547.718)"/><path d="M0 0v11.045h-47.735v4.513H0v10.773h-47.735v4.851H0v10.745h-43.562c-2.044 0-3.976-.301-5.768-.912-1.791-.602-3.358-1.476-4.681-2.632-1.332-1.147-2.383-2.548-3.151-4.212-.77-1.664-1.154-3.534-1.154-5.631V13.415c0-1.965.403-3.77 1.21-5.415a13.308 13.308 0 0 1 3.246-4.24c1.35-1.184 2.907-2.106 4.671-2.773A15.617 15.617 0 0 1-43.664 0h29.367z" style="fill:#231f20;fill-opacity:1;fill-rule:nonzero;stroke:none" transform="translate(908.117 455.373)"/><path d="M0 0c-13.627-68.646-12.269-62.348-16.674-83.493h-99.322c7.71 39.923 8.992 46.284 16.015 83.398-45.864-.026-.022-.005-45.887-.027 10.799-4.73 14.591-5.864 12.962-13.181-5.45-27.855-9.014-45.792-13.939-70.627-.539-2.718-.415-5.257-.415-7.525.236-12.796 11.985-22.369 27.595-22.854H5.457c5.74.201 12.413-.301 14.421-6.079 6.097 31.162.582 2.935 7.117 36.895H13.768C19.93-51.245 23.307-33.58 29.818-.222 18.953-.212 13.357-.021 0 0" style="fill:#231f20;fill-opacity:1;fill-rule:nonzero;stroke:none" transform="translate(227.977 558.123)"/><path d="M0 0h-36.033v4.615H0Zm0-15.335h-36.033v4.716H0Zm10.617 6.523a19.26 19.26 0 0 1-1.011 1.844 47.3 47.3 0 0 1-1.12 1.752c1.531 2.409 2.295 4.975 2.295 7.69 0 2.169-.364 4.049-1.093 5.625-.728 1.584-1.748 2.9-3.041 3.929-1.302 1.028-2.832 1.797-4.598 2.288-1.777.501-3.706.751-5.81.751H-46.76v-41.021h44.82c1.157 0 2.294.158 3.424.472 1.129.315 2.195.77 3.205 1.344a14.95 14.95 0 0 1 2.787 2.095 13.979 13.979 0 0 1 2.212 2.714c.62.992 1.102 2.057 1.458 3.188.345 1.13.518 2.316.518 3.539 0 .621-.1 1.251-.3 1.891a11.851 11.851 0 0 1-.747 1.899" style="fill:#231f20;fill-opacity:1;fill-rule:nonzero;stroke:none" transform="translate(974.505 420.722)"/><path d="M0 0h-102.168l2.428 12.858H2.429zm-8.07-42.731h-102.169l2.482 13.142H-5.588zm26.986-12.513c2.284 2.827 3.515 5.448 4.885 8.189a19.66 19.66 0 0 1 1.381 3.696 22 22 0 0 1 .394 1.752c.361 1.985.926 3.558 1.024 5.569.1 2.064.205 4.408-.014 6.19a30.762 30.762 0 0 1-1.404 6.182c-.435 1.286-.866 2.282-1.388 3.477-.853 1.952-1.488 3.247-3.401 5.457a54.2 54.2 0 0 1 4.789 5.636c3.731 5.078 6.109 10.387 7.132 15.88 1.129 6.056 1.088 10.604.414 14.789-.774 4.805-3.876 9.185-6.888 11.941-.214.196-.433.39-.658.583-3.182 2.726-7.353 5.03-11.838 6.347-4.727 1.387-10.114 1.539-16.078 1.539h-133.232l4.377-2.12 3.778-3.311 1.262-2.848-.022-1.994-19.672-104.031h127.085c3.279 0 7.387.119 11.111 1.087 3.027.786 5.776 1.353 8.872 2.935 3.25 1.661 6.633 2.962 9.349 5.144 3.037 2.438 6.476 5.106 8.742 7.911" style="fill:#231f20;fill-opacity:1;fill-rule:nonzero;stroke:none" transform="translate(410.031 455.074)"/><path d="M0 0a15.577 15.577 0 0 1 5.5-.981h43.471V9.992H1.447v4.483h47.524v10.702H1.447v4.818h47.524v10.674H5.603c-2.036 0-3.959-.299-5.743-.905-1.784-.598-3.343-1.467-4.66-2.616-1.326-1.139-2.372-2.53-3.138-4.183s-1.148-3.511-1.148-5.594V12.346c0-1.952.401-3.745 1.204-5.379a13.243 13.243 0 0 1 3.231-4.212C-3.306 1.578-1.756.663 0 0" style="fill:#231f20;fill-opacity:1;fill-rule:nonzero;stroke:none" transform="translate(268.99 517.723)"/><path d="M0 0v-15.728h10.524v41.617H0V10.604h-38.336v15.285H-48.86v-41.617h10.524V0h30.39z" style="fill:#231f20;fill-opacity:1;fill-rule:nonzero;stroke:none" transform="translate(964.435 471.27)"/></g></svg>